<?xml version="1.0" standalone="no"?><!DOCTYPE svg PUBLIC "-//W3C//DTD SVG 1.1//EN" "http://www.w3.org/Graphics/SVG/1.1/DTD/svg11.dtd"><svg t="1647414278226" class="icon" viewBox="0 0 1024 1024" version="1.1" xmlns="http://www.w3.org/2000/svg" p-id="22948" xmlns:xlink="http://www.w3.org/1999/xlink" width="200" height="200"><defs><style type="text/css"></style></defs><path d="M145.713174 163.569356c-44.430932 0-80.422657 35.281551-80.422657 78.796624 0 43.537586 35.991726 78.8263 80.422657 78.8263 44.400233 0 80.391958-35.288714 80.391958-78.8263C226.105133 198.850907 190.112384 163.569356 145.713174 163.569356L145.713174 163.569356zM327.123874 215.477586l0 58.805314 631.584586 0 0-58.805314L327.123874 215.477586 327.123874 215.477586zM145.713174 433.17677c-44.430932 0-80.422657 35.281551-80.422657 78.819137 0 43.515073 35.991726 78.81095 80.422657 78.81095 44.400233 0 80.391958-35.295877 80.391958-78.81095C226.105133 468.458321 190.112384 433.17677 145.713174 433.17677L145.713174 433.17677zM327.123874 538.816762l631.584586 0 0-58.782801-631.584586 0L327.123874 538.816762 327.123874 538.816762zM145.713174 702.80772c-44.430932 0-80.422657 35.280528-80.422657 78.802764 0 43.538609 35.991726 78.82016 80.422657 78.82016 44.400233 0 80.391958-35.282574 80.391958-78.82016C226.105133 738.088248 190.112384 702.80772 145.713174 702.80772L145.713174 702.80772zM327.123874 821.233923l631.584586 0 0-58.781778-631.584586 0L327.123874 821.233923 327.123874 821.233923zM327.123874 821.233923" p-id="22949"></path></svg>