<?xml version="1.0" standalone="no"?><!DOCTYPE svg PUBLIC "-//W3C//DTD SVG 1.1//EN" "http://www.w3.org/Graphics/SVG/1.1/DTD/svg11.dtd"><svg t="1641979448086" class="icon" viewBox="0 0 1024 1024" version="1.1" xmlns="http://www.w3.org/2000/svg" p-id="19075" xmlns:xlink="http://www.w3.org/1999/xlink" width="300" height="300"><defs><style type="text/css"></style></defs><path d="M0 0h1024v1024H0z" fill="#202425" opacity=".01" p-id="19076"></path><path d="M273.066667 68.266667a102.4 102.4 0 0 0-102.4 102.4v74.069333A102.434133 102.434133 0 0 0 102.4 341.333333v74.069334A102.434133 102.434133 0 0 0 34.133333 512v273.066667a170.666667 170.666667 0 0 0 170.666667 170.666666h614.4a170.666667 170.666667 0 0 0 170.666667-170.666666v-273.066667a102.434133 102.434133 0 0 0-68.266667-96.597333V341.333333a102.434133 102.434133 0 0 0-68.266667-96.597333V170.666667a102.4 102.4 0 0 0-102.4-102.4H273.066667z m580.266666 341.333333h-204.8a34.133333 34.133333 0 0 0-34.133333 34.133333 102.4 102.4 0 1 1-204.8 0 34.133333 34.133333 0 0 0-34.133333-34.133333H170.666667v-68.266667a34.133333 34.133333 0 0 1 34.133333-34.133333h614.4a34.133333 34.133333 0 0 1 34.133333 34.133333v68.266667zM136.533333 477.866667h208.213334a170.734933 170.734933 0 0 0 334.506666 0H887.466667a34.133333 34.133333 0 0 1 34.133333 34.133333v273.066667a102.4 102.4 0 0 1-102.4 102.4H204.8a102.4 102.4 0 0 1-102.4-102.4v-273.066667a34.133333 34.133333 0 0 1 34.133333-34.133333z m648.533334-238.933334H238.933333V170.666667a34.133333 34.133333 0 0 1 34.133334-34.133334h477.866666a34.133333 34.133333 0 0 1 34.133334 34.133334v68.266666zM375.466667 750.933333a34.133333 34.133333 0 0 1 34.133333-34.133333h204.8a34.133333 34.133333 0 1 1 0 68.266667h-204.8a34.133333 34.133333 0 0 1-34.133333-34.133334z" fill="#202425" p-id="19077"></path></svg>