<?xml version="1.0" standalone="no"?><!DOCTYPE svg PUBLIC "-//W3C//DTD SVG 1.1//EN" "http://www.w3.org/Graphics/SVG/1.1/DTD/svg11.dtd"><svg t="1641979350030" class="icon" viewBox="0 0 1024 1024" version="1.1" xmlns="http://www.w3.org/2000/svg" p-id="18078" xmlns:xlink="http://www.w3.org/1999/xlink" width="300" height="300"><defs><style type="text/css"></style></defs><path d="M128 213.333333h170.666667a42.666667 42.666667 0 1 0 0-85.333333H128a42.666667 42.666667 0 1 0 0 85.333333zM128 554.666667h213.333333a42.666667 42.666667 0 0 0 0-85.333334H128a42.666667 42.666667 0 0 0 0 85.333334zM938.666667 304.768C938.666667 157.269333 824.064 42.666667 676.565333 42.666667 539.050667 42.666667 426.666667 159.573333 426.666667 304.768 426.666667 440.021333 541.269333 554.666667 676.565333 554.666667 821.76 554.666667 938.666667 442.282667 938.666667 304.768z m-426.666667 0C512 205.952 586.965333 128 676.565333 128 776.96 128 853.333333 204.373333 853.333333 304.768 853.333333 394.368 775.381333 469.333333 676.565333 469.333333 588.416 469.333333 512 392.96 512 304.768zM128 896h597.333333a42.666667 42.666667 0 0 0 0-85.333333H128a42.666667 42.666667 0 0 0 0 85.333333z" p-id="18079"></path><path d="M728.746667 528.810667l128 298.666666a42.666667 42.666667 0 1 0 78.506666-33.621333l-128-298.666667a42.666667 42.666667 0 1 0-78.506666 33.621334z" p-id="18080"></path></svg>