<?xml version="1.0" standalone="no"?><!DOCTYPE svg PUBLIC "-//W3C//DTD SVG 1.1//EN" "http://www.w3.org/Graphics/SVG/1.1/DTD/svg11.dtd"><svg t="1641978932392" class="icon" viewBox="0 0 1024 1024" version="1.1" xmlns="http://www.w3.org/2000/svg" p-id="14601" xmlns:xlink="http://www.w3.org/1999/xlink" width="300" height="300"><defs><style type="text/css"></style></defs><path d="M561.066667 622.933333c-2.844444-12.8-7.822222-25.6-13.511111-37.688889-9.244444-19.2-22.044444-36.977778-37.688889-52.622222l-20.622223-21.333333c-4.266667-4.266667-7.822222-7.822222-12.088888-11.377778-76.8-64.711111-192.711111-61.155556-265.244445 11.377778L61.155556 662.044444c-63.288889 63.288889-74.666667 160-32 235.377778 8.533333 14.933333 19.2 29.866667 32 42.666667l21.333333 21.333333c38.4 38.4 88.177778 57.6 138.666667 57.6s100.266667-19.2 138.666666-57.6L510.577778 810.666667c49.777778-51.2 66.844444-123.022222 50.488889-187.733334z m-426.666667 113.777778l150.755556-150.755555c17.777778-17.777778 41.244444-27.022222 64.711111-27.022223s46.933333 9.244444 64.711111 27.022223l21.333333 21.333333c15.644444 15.644444 24.888889 35.555556 26.311111 56.177778 2.133333 26.311111-6.4 53.333333-26.311111 73.244444l-150.755555 150.755556c-35.555556 35.555556-93.866667 35.555556-129.422223 0l-21.333333-21.333334c-2.844444-2.844444-4.977778-5.688889-7.111111-8.533333-28.444444-35.555556-26.311111-88.177778 7.111111-120.888889zM1014.044444 169.244444c-8.533333-33.422222-25.6-64.711111-51.2-90.311111l-21.333333-21.333333c-76.8-76.8-201.244444-76.8-277.333333 0L513.422222 208.355556c-63.288889 63.288889-73.955556 160-32 235.377777 8.533333 14.933333 19.2 29.866667 32 42.666667l21.333334 21.333333c38.4 38.4 88.177778 57.6 138.666666 57.6s100.266667-19.2 138.666667-57.6l150.755555-150.755555c51.2-51.2 68.266667-122.311111 51.2-187.733334z m-425.955555 113.777778l150.755555-150.755555c17.777778-17.777778 41.244444-27.022222 64.711112-27.022223s46.933333 9.244444 64.711111 27.022223l21.333333 21.333333c15.644444 15.644444 24.177778 35.555556 26.311111 56.177778 2.133333 26.311111-6.4 53.333333-26.311111 73.955555l-150.755556 150.755556c-35.555556 35.555556-93.866667 35.555556-129.422222 0l-21.333333-21.333333c-2.844444-2.844444-4.977778-5.688889-7.111111-8.533334-28.444444-36.266667-26.311111-88.888889 7.111111-121.6z" fill="#3973F4" p-id="14602"></path><path d="M739.555556 340.622222c-1.422222 10.666667-6.4 21.333333-14.933334 29.155556l-347.022222 347.022222c-9.955556 9.955556-23.466667 15.644444-36.977778 15.644444-13.511111 0-27.022222-4.977778-36.977778-15.644444-2.133333-2.133333-3.555556-4.266667-4.977777-6.4-14.933333-20.622222-13.511111-49.066667 4.977777-67.555556L650.666667 295.822222c20.622222-20.622222 53.333333-20.622222 73.955555 0 12.088889 12.8 17.066667 29.155556 14.933334 44.8z" fill="#4988FD" p-id="14603"></path></svg>