<?xml version="1.0" standalone="no"?><!DOCTYPE svg PUBLIC "-//W3C//DTD SVG 1.1//EN" "http://www.w3.org/Graphics/SVG/1.1/DTD/svg11.dtd"><svg t="1642812665369" class="icon" viewBox="0 0 1024 1024" version="1.1" xmlns="http://www.w3.org/2000/svg" p-id="3836" xmlns:xlink="http://www.w3.org/1999/xlink" width="200" height="200"><defs><style type="text/css"></style></defs><path d="M107.07407485 156.09262049v584.55578428h810.40688318v-584.55578428h-810.40688318z m232.53806225 374.06698883v17.10120899h-116.09927407V349.48020694h43.69406967V513.18830117h72.4052044v16.97130815z m68.19226995 17.10120899h-43.69406847V349.48020694h43.69406847v197.78061137z m152.77129243 0h-35.11025057l-92.38195588-197.77913559H479.15711662l63.76824651 150.85229639 63.80957786-150.85229639h46.06329075l-92.22253226 197.77913559z m240.46647038-180.80930443v17.10120899h-83.48519508v48.69379292h79.58372777V466.3205087h-79.58372777v46.86779247h83.48519508v34.07251714h-127.17778777V349.48020694h127.17778777v16.97130694z" fill="#2c2c2c" p-id="3837"></path><path d="M494.81760283 731.86530645h33.95147215v107.75902072h-33.95147215z" fill="#2c2c2c" p-id="3838"></path><path d="M353.10710996 830.76742197h317.37245788v33.95147214H353.10710996z" fill="#2c2c2c" p-id="3839"></path></svg>