<?xml version="1.0" standalone="no"?><!DOCTYPE svg PUBLIC "-//W3C//DTD SVG 1.1//EN" "http://www.w3.org/Graphics/SVG/1.1/DTD/svg11.dtd"><svg t="1641990758210" class="icon" viewBox="0 0 1024 1024" version="1.1" xmlns="http://www.w3.org/2000/svg" p-id="18057" xmlns:xlink="http://www.w3.org/1999/xlink" width="300" height="300"><defs><style type="text/css"></style></defs><path d="M523.73504 319.29344h-204.8c-16.896 0-30.72-13.824-30.72-30.72s13.824-30.72 30.72-30.72h204.8c16.896 0 30.72 13.824 30.72 30.72s-13.824 30.72-30.72 30.72zM605.65504 452.41344h-286.72c-16.896 0-30.72-13.824-30.72-30.72s13.824-30.72 30.72-30.72h286.72c16.896 0 30.72 13.824 30.72 30.72s-13.824 30.72-30.72 30.72z" fill="#FFFFFF" p-id="18058"></path><path d="M765.67552 739.62496H644.864a12.1856 12.1856 0 0 0-9.37984 4.02432l-67.13344 67.13344c-30.83264 30.84288-81.85856 30.84288-114.08384 0l-67.08224-67.13344a12.1856 12.1856 0 0 0-9.43104-4.02432H256.94208c-59.19744-0.2048-107.12064-48.15872-107.30496-107.35616V297.44128c0-59.02336 48.27136-107.34592 107.35616-107.34592h510.0032c59.0336 0 107.35616 48.32256 107.35616 107.34592v334.82752c-1.32096 59.0848-49.64352 107.35616-108.67712 107.35616z" fill="#3889FF" p-id="18059"></path><path d="M350.91456 407.64416c22.784 0 40.27392 17.47968 40.27392 40.26368v26.86976c0 22.784-17.48992 40.27392-40.27392 40.27392-22.8352 0-40.27392-17.48992-40.27392-40.27392v-26.86976c0.01024-22.77376 17.43872-40.26368 40.27392-40.26368zM512 407.64416c22.784 0 40.26368 17.47968 40.26368 40.26368v26.86976c0 22.784-17.47968 40.27392-40.26368 40.27392-22.784 0-40.27392-17.48992-40.27392-40.27392v-26.86976c0-22.77376 17.48992-40.26368 40.27392-40.26368zM673.08544 407.64416c22.784 0 40.27392 17.47968 40.27392 40.26368v26.86976c0 22.784-17.47968 40.27392-40.27392 40.27392-22.8352 0-40.27392-17.48992-40.27392-40.27392v-26.86976c0-22.77376 17.43872-40.26368 40.27392-40.26368z" fill="#FFFFFF" p-id="18060"></path></svg>