<?xml version="1.0" standalone="no"?><!DOCTYPE svg PUBLIC "-//W3C//DTD SVG 1.1//EN" "http://www.w3.org/Graphics/SVG/1.1/DTD/svg11.dtd"><svg t="1642040572817" class="icon" viewBox="0 0 1024 1024" version="1.1" xmlns="http://www.w3.org/2000/svg" p-id="1501" xmlns:xlink="http://www.w3.org/1999/xlink" width="200" height="200"><defs><style type="text/css"></style></defs><path d="M565 200.4c25.6 44.6 40.4 96.2 40.4 151.3 0 167.9-136.1 304-304 304-22.9 0-45.2-2.6-66.7-7.4C284.5 760.7 397 839.2 527.8 839.2c177 0 320.5-143.5 320.5-320.5 0-164.4-123.8-299.8-283.3-318.3zM312.9 243.6h-39.2v-39.2c0-10.8-8.8-19.6-19.6-19.6s-19.6 8.8-19.6 19.6v39.2h-39.2c-10.8 0-19.6 8.8-19.6 19.6s8.8 19.6 19.6 19.6h39.2V322c0 10.8 8.8 19.6 19.6 19.6s19.6-8.8 19.6-19.6v-39.2h39.2c10.8 0 19.6-8.8 19.6-19.6s-8.8-19.6-19.6-19.6z" fill="#FFF0C2" p-id="1502"></path><path d="M306.9 245.6h-35.2v-35.2c0-9.7-7.9-17.6-17.6-17.6-9.7 0-17.6 7.9-17.6 17.6v35.2h-35.2c-9.7 0-17.6 7.9-17.6 17.6 0 9.7 7.9 17.6 17.6 17.6h35.2V316c0 9.7 7.9 17.6 17.6 17.6 9.7 0 17.6-7.9 17.6-17.6v-35.2h35.2c9.7 0 17.6-7.9 17.6-17.6 0-9.7-7.9-17.6-17.6-17.6z" fill="#FFC445" p-id="1503"></path><path d="M427.8 475.3h-27.5v-27.5c0-7.6-6.2-13.8-13.8-13.8-7.6 0-13.8 6.2-13.8 13.8v27.5h-27.5c-7.6 0-13.8 6.2-13.8 13.8 0 7.6 6.2 13.8 13.8 13.8h27.5v27.5c0 7.6 6.2 13.8 13.8 13.8 7.6 0 13.8-6.2 13.8-13.8v-27.5h27.5c7.6 0 13.8-6.2 13.8-13.8 0-7.6-6.2-13.8-13.8-13.8z" fill="#FFF0C2" p-id="1504"></path><path d="M423.6 476.7h-24.7V452c0-6.8-5.5-12.4-12.4-12.4-6.8 0-12.4 5.5-12.4 12.4v24.7h-24.7c-6.8 0-12.4 5.5-12.4 12.4 0 6.8 5.5 12.4 12.4 12.4h24.7v24.7c0 6.8 5.5 12.4 12.4 12.4 6.8 0 12.4-5.5 12.4-12.4v-24.7h24.7c6.8 0 12.4-5.5 12.4-12.4 0-6.8-5.5-12.4-12.4-12.4z" fill="#FFC445" p-id="1505"></path><path d="M563.4 223c23.8 41.4 37.5 89.4 37.5 140.6 0 156-126.5 282.5-282.5 282.5-21.3 0-42-2.4-62-6.9 46.3 104.5 150.8 177.4 272.4 177.4 164.5 0 297.9-133.4 297.9-297.9 0-152.7-115.1-278.6-263.3-295.7z" fill="#FFB948" p-id="1506"></path></svg>