<?xml version="1.0" standalone="no"?><!DOCTYPE svg PUBLIC "-//W3C//DTD SVG 1.1//EN" "http://www.w3.org/Graphics/SVG/1.1/DTD/svg11.dtd"><svg t="1645597686672" class="icon" viewBox="0 0 1024 1024" version="1.1" xmlns="http://www.w3.org/2000/svg" p-id="7715" xmlns:xlink="http://www.w3.org/1999/xlink" width="200" height="200"><defs><style type="text/css"></style></defs><path d="M109.632 673.664h519.68c25.152 0 45.568-22.016 45.568-48.896 0-26.88-20.416-48.896-45.568-48.896h-519.68c-25.216 0-45.632 22.016-45.632 48.896 0 26.88 20.48 48.896 45.632 48.896z m0-228.096h519.68c25.152 0 45.568-21.952 45.568-48.896 0-26.88-20.416-48.896-45.568-48.896h-519.68c-25.216 0-45.632 22.016-45.632 48.896 0 26.88 20.48 48.896 45.632 48.896z m3.264-219.904h795.776c26.88 0 50.56-20.352 51.328-47.168A48.896 48.896 0 0 0 911.104 128H115.328c-26.88 0-50.56 20.416-51.328 47.168a48.896 48.896 0 0 0 48.896 50.56z m619.776 447.232V348.672L960 510.784l-227.328 162.112c0 0.768 0 0.768 0 0z m178.432 122.944H115.328c-26.88 0-50.56 20.48-51.328 47.232a48.896 48.896 0 0 0 48.896 50.496h795.776c26.88 0 50.56-20.416 51.328-47.232a48.896 48.896 0 0 0-48.896-50.496z" p-id="7716"></path></svg>