<?xml version="1.0" standalone="no"?><!DOCTYPE svg PUBLIC "-//W3C//DTD SVG 1.1//EN" "http://www.w3.org/Graphics/SVG/1.1/DTD/svg11.dtd"><svg t="1641990391200" class="icon" viewBox="0 0 1024 1024" version="1.1" xmlns="http://www.w3.org/2000/svg" p-id="9989" xmlns:xlink="http://www.w3.org/1999/xlink" width="300" height="300"><defs><style type="text/css"></style></defs><path d="M511.9 960.5c-246.7 0-447.4-200.7-447.4-447.4S265.2 65.7 511.9 65.7s447.4 200.7 447.4 447.4-200.7 447.4-447.4 447.4z m0-855.9c-225.3 0-408.5 183.2-408.5 408.5s183.3 408.5 408.5 408.5 408.5-183.2 408.5-408.5-183.2-408.5-408.5-408.5z" fill="#007AFF" p-id="9990"></path><path d="M570.3 781.6h-0.3c-8.7 0-16.2-4.1-18.5-12.4l-63.8-232.9L253.9 473c-8.4-2.3-14.2-9.6-14.3-18.3-0.1-8.7 5.5-16.2 13.8-18.8l447.4-136.1c6.9-2.1 14.3-0.2 19.4 4.9 5.1 5.1 7 12.5 4.9 19.4L588.9 769.7c-2.5 8.2-10.1 11.9-18.6 11.9zM329.2 453.7l179.5 49c6.6 1.8 11.9 7 13.7 13.6l49 179.5 105.9-348-348.1 105.9z" fill="#007AFF" p-id="9991"></path></svg>