<?xml version="1.0" standalone="no"?><!DOCTYPE svg PUBLIC "-//W3C//DTD SVG 1.1//EN" "http://www.w3.org/Graphics/SVG/1.1/DTD/svg11.dtd"><svg t="1642039278114" class="icon" viewBox="0 0 1024 1024" version="1.1" xmlns="http://www.w3.org/2000/svg" p-id="38312" xmlns:xlink="http://www.w3.org/1999/xlink" width="200" height="200"><defs><style type="text/css"></style></defs><path d="M757.76 902.144c-44.032-29.696-103.424-3.072-110.592 49.152-9.216 71.68-107.52 84.992-136.192 18.432-20.48-49.152-84.992-58.368-119.808-18.432-47.104 55.296-136.192 13.312-123.904-58.368 9.216-52.224-39.936-95.232-91.136-79.872-69.632 21.504-121.856-62.464-72.704-115.712 35.84-38.912 18.432-102.4-32.768-116.736C1.024 562.176 2.048 462.848 71.68 444.416c51.2-13.312 70.656-75.776 34.816-115.712-48.128-54.272 6.144-137.216 74.752-114.688 50.176 16.384 100.352-26.624 92.16-78.848-11.264-71.68 79.872-111.616 124.928-56.32 33.792 40.96 98.304 32.768 119.808-16.384 29.696-66.56 126.976-51.2 135.168 20.48 6.144 52.224 65.536 80.896 109.568 51.2 60.416-39.936 135.168 25.6 102.4 91.136-23.552 47.104 11.264 103.424 64.512 102.4 72.704-1.024 99.328 94.208 37.888 132.096-45.056 27.648-46.08 93.184-1.024 120.832 61.44 37.888 32.768 133.12-39.936 131.072-53.248-2.048-89.088 53.248-66.56 101.376 32.768 66.56-41.984 130.048-102.4 89.088z" fill="#FF6DA3" p-id="38313"></path><path d="M510.976 517.12m-317.44 0a317.44 317.44 0 1 0 634.88 0 317.44 317.44 0 1 0-634.88 0Z" fill="#FFE422" p-id="38314"></path><path d="M746.496 386.048H565.248c-15.36 0-28.672 12.288-28.672 28.672 0 10.24 1.024 19.456 3.072 28.672h-62.464c2.048-9.216 3.072-18.432 3.072-28.672 0-15.36-12.288-28.672-28.672-28.672H270.336c-15.36 0-28.672 12.288-28.672 28.672v133.12c0 15.36 12.288 28.672 28.672 28.672H317.44c69.632 0 128-44.032 151.552-104.448h76.8v-3.072c22.528 62.464 81.92 107.52 152.576 107.52h47.104c15.36 0 28.672-12.288 28.672-28.672v-133.12c0-16.384-12.288-28.672-27.648-28.672zM503.808 704.512H501.76c-51.2-1.024-87.04-53.248-88.064-55.296-3.072-5.12-2.048-11.264 3.072-14.336 5.12-3.072 11.264-2.048 14.336 3.072 0 0 30.72 45.056 71.68 46.08 24.576 1.024 49.152-15.36 73.728-47.104 3.072-4.096 10.24-5.12 14.336-2.048 4.096 3.072 5.12 10.24 2.048 14.336-27.648 36.864-57.344 55.296-89.088 55.296z" fill="#775128" p-id="38315"></path></svg>