<?xml version="1.0" standalone="no"?><!DOCTYPE svg PUBLIC "-//W3C//DTD SVG 1.1//EN" "http://www.w3.org/Graphics/SVG/1.1/DTD/svg11.dtd"><svg t="1641979504896" class="icon" viewBox="0 0 1024 1024" version="1.1" xmlns="http://www.w3.org/2000/svg" p-id="19908" xmlns:xlink="http://www.w3.org/1999/xlink" width="300" height="300"><defs><style type="text/css"></style></defs><path d="M821.1 41.5H184.7c-34.9 1.8-62.9 30-64.4 65v843c0 0.7 0 1.3 0.1 2 0 0.3 0 0.6 0.1 1 0 0.3 0 0.7 0.1 1 0 0.4 0.1 0.8 0.1 1.2 0 0.3 0.1 0.5 0.1 0.8 0.1 0.4 0.1 0.9 0.2 1.3 0 0.2 0.1 0.4 0.1 0.7 0.1 0.4 0.2 0.9 0.3 1.3 0.1 0.2 0.1 0.4 0.1 0.6l0.3 1.2c0.1 0.2 0.1 0.5 0.2 0.7 0.1 0.4 0.2 0.8 0.4 1.1 0.1 0.3 0.2 0.5 0.3 0.8 0.1 0.3 0.3 0.7 0.4 1l0.3 0.9c0.1 0.3 0.3 0.6 0.4 0.9 0.1 0.3 0.3 0.7 0.4 1 0.1 0.2 0.2 0.5 0.4 0.7 0.2 0.4 0.4 0.7 0.5 1.1 0.1 0.2 0.2 0.4 0.4 0.6 0.2 0.4 0.4 0.7 0.6 1.1 0.1 0.2 0.2 0.4 0.4 0.6 0.2 0.4 0.5 0.7 0.7 1.1 0.1 0.2 0.3 0.4 0.4 0.6 0.2 0.4 0.5 0.7 0.8 1.1 0.2 0.2 0.3 0.4 0.5 0.6 0.2 0.3 0.5 0.6 0.7 0.9 0.2 0.3 0.5 0.5 0.7 0.8 0.2 0.2 0.4 0.5 0.6 0.7 0.5 0.5 0.9 1 1.4 1.5 0.5 0.5 1 0.9 1.5 1.4 0.2 0.2 0.5 0.4 0.7 0.6 0.3 0.2 0.5 0.5 0.8 0.7 0.3 0.3 0.6 0.5 0.9 0.7 0.2 0.2 0.4 0.3 0.6 0.5 0.4 0.3 0.7 0.5 1.1 0.8 0.2 0.1 0.4 0.3 0.6 0.4 0.4 0.2 0.7 0.5 1.1 0.7 0.2 0.1 0.4 0.2 0.6 0.4 0.4 0.2 0.7 0.4 1.1 0.6 0.2 0.1 0.4 0.2 0.6 0.4 0.4 0.2 0.7 0.4 1.1 0.5 0.2 0.1 0.5 0.2 0.7 0.4 0.3 0.2 0.7 0.3 1 0.4 0.3 0.1 0.6 0.3 0.9 0.4l0.9 0.3c0.3 0.1 0.7 0.3 1 0.4 0.3 0.1 0.5 0.2 0.8 0.3 0.4 0.1 0.8 0.3 1.1 0.4 0.2 0.1 0.5 0.1 0.7 0.2l1.2 0.3c0.2 0.1 0.4 0.1 0.7 0.2 0.4 0.1 0.9 0.2 1.3 0.3 0.2 0 0.4 0.1 0.7 0.1 0.4 0.1 0.9 0.2 1.3 0.2 0.3 0 0.5 0.1 0.8 0.1 0.4 0.1 0.8 0.1 1.2 0.1 0.3 0 0.7 0.1 1 0.1 0.3 0 0.6 0.1 1 0.1 0.7 0 1.3 0.1 2 0.1s1.4 0 2-0.1c0.3 0 0.6 0 1-0.1 0.3 0 0.7 0 1-0.1 0.4 0 0.8-0.1 1.2-0.1 0.3 0 0.5-0.1 0.8-0.1 0.4-0.1 0.9-0.1 1.3-0.2 0.2 0 0.4-0.1 0.7-0.1 0.4-0.1 0.9-0.2 1.3-0.3 0.2-0.1 0.4-0.1 0.7-0.2l1.2-0.3c0.2-0.1 0.5-0.1 0.7-0.2 0.4-0.1 0.8-0.2 1.1-0.4 0.3-0.1 0.5-0.2 0.8-0.3 0.3-0.1 0.7-0.3 1-0.4l0.9-0.3c0.3-0.1 0.6-0.3 0.9-0.4 0.3-0.1 0.7-0.3 1-0.4 0.2-0.1 0.5-0.2 0.7-0.4 0.4-0.2 0.7-0.4 1.1-0.5 0.2-0.1 0.4-0.2 0.6-0.4 0.4-0.2 0.7-0.4 1.1-0.6 0.2-0.1 0.4-0.2 0.6-0.4 0.4-0.2 0.8-0.5 1.1-0.7 0.2-0.1 0.4-0.3 0.6-0.4 0.4-0.2 0.7-0.5 1.1-0.8 0.2-0.2 0.4-0.3 0.6-0.5 0.3-0.2 0.6-0.5 1-0.7 0.3-0.2 0.5-0.4 0.8-0.7 0.2-0.2 0.5-0.4 0.7-0.6 0.5-0.4 1-0.9 1.4-1.4l312-312 312 312c8.1 8.1 18.8 12.1 29.5 12h0.5c22.6 0 41-18.3 41-41V107.3C884 72 856.1 43.5 821.1 41.5z" fill="#242424" p-id="19909"></path></svg>