<?xml version="1.0" standalone="no"?><!DOCTYPE svg PUBLIC "-//W3C//DTD SVG 1.1//EN" "http://www.w3.org/Graphics/SVG/1.1/DTD/svg11.dtd"><svg t="1642812586597" class="icon" viewBox="0 0 1024 1024" version="1.1" xmlns="http://www.w3.org/2000/svg" p-id="2305" xmlns:xlink="http://www.w3.org/1999/xlink" width="200" height="200"><defs><style type="text/css"></style></defs><path d="M960.43008 332.778496l-133.021696 45.024256L827.408384 260.871168c0-23.40352-18.967552-42.376192-42.372096-42.376192l-114.55488 0L253.991936 218.494976 73.79968 218.494976c-23.40352 0-42.376192 18.971648-42.376192 42.376192l0 349.394944 0 132.69504-0.556032 24.56064c0 23.399424 18.971648 42.376192 42.376192 42.376192L555.39712 809.897984l229.640192 0c23.40352 0 42.372096-18.975744 42.372096-42.376192l0-14.076928 0-66.9952 133.021696 45.02016c23.40352 0 42.376192-18.971648 42.376192-42.372096L1002.807296 375.154688C1002.805248 351.751168 983.8336 332.778496 960.43008 332.778496zM563.525632 531.45088 403.787776 651.986944c-3.692544 2.772992-8.1408 4.202496-12.58496 4.202496-3.182592 0-6.366208-0.735232-9.32352-2.2016-7.07584-3.509248-11.561984-10.77248-11.561984-18.683904L370.317312 401.570816c0-7.790592 4.365312-14.97088 11.298816-18.558976 6.892544-3.550208 15.276032-2.977792 21.6576 1.508352L563.01568 497.717248c5.44256 3.871744 8.70912 10.075136 8.809472 16.720896C571.925504 521.12896 568.84736 527.4112 563.525632 531.45088z" p-id="2306"></path></svg>