<?xml version="1.0" standalone="no"?><!DOCTYPE svg PUBLIC "-//W3C//DTD SVG 1.1//EN" "http://www.w3.org/Graphics/SVG/1.1/DTD/svg11.dtd"><svg t="1647911685087" class="icon" viewBox="0 0 1024 1024" version="1.1" xmlns="http://www.w3.org/2000/svg" p-id="1398" xmlns:xlink="http://www.w3.org/1999/xlink" width="300" height="300"><defs><style type="text/css">@font-face { font-family: feedback-iconfont; src: url("//at.alicdn.com/t/font_1031158_u69w8yhxdu.woff2?t=1630033759944") format("woff2"), url("//at.alicdn.com/t/font_1031158_u69w8yhxdu.woff?t=1630033759944") format("woff"), url("//at.alicdn.com/t/font_1031158_u69w8yhxdu.ttf?t=1630033759944") format("truetype"); }
</style></defs><path d="M512 512m-512 0a512 512 0 1 0 1024 0 512 512 0 1 0-1024 0Z" fill="#FDEBED" p-id="1399"></path><path d="M716.8 576c-35.84 0-64-28.16-64-64s28.16-64 64-64 64 28.16 64 64-28.16 64-64 64z m-204.8 0c-35.84 0-64-28.16-64-64s28.16-64 64-64 64 28.16 64 64-28.16 64-64 64z m-204.8 0c-35.84 0-64-28.16-64-64s28.16-64 64-64 64 28.16 64 64-28.16 64-64 64z" fill="#EC3A4E" p-id="1400"></path></svg>