<?xml version="1.0" standalone="no"?><!DOCTYPE svg PUBLIC "-//W3C//DTD SVG 1.1//EN" "http://www.w3.org/Graphics/SVG/1.1/DTD/svg11.dtd"><svg t="1641990613992" class="icon" viewBox="0 0 1024 1024" version="1.1" xmlns="http://www.w3.org/2000/svg" p-id="15689" xmlns:xlink="http://www.w3.org/1999/xlink" width="300" height="300"><defs><style type="text/css"></style></defs><path d="M673.9 736.2c-13.7 0-26.9-7.6-33.4-20.6-9.2-18.4-1.7-40.9 16.7-50.1l99.6-49.8c18.4-9.2 40.9-1.8 50.1 16.7 9.2 18.4 1.7 40.9-16.7 50.1l-99.6 49.8c-5.4 2.6-11.1 3.9-16.7 3.9zM673.9 586.8c-13.7 0-26.9-7.6-33.4-20.6-9.2-18.4-1.7-40.9 16.7-50.1l99.6-49.8c18.4-9.2 40.9-1.7 50.1 16.7 9.2 18.4 1.7 40.9-16.7 50.1l-99.6 49.8c-5.4 2.6-11.1 3.9-16.7 3.9zM673.9 437.5c-13.7 0-26.9-7.6-33.4-20.6-9.2-18.4-1.7-40.9 16.7-50.1l99.6-49.8c18.4-9.2 40.9-1.8 50.1 16.7 9.2 18.4 1.7 40.9-16.7 50.1l-99.6 49.8c-5.4 2.6-11.1 3.9-16.7 3.9zM362.7 723.7c-5.6 0-11.3-1.3-16.7-3.9L246.5 670c-18.4-9.2-25.9-31.6-16.7-50.1 9.2-18.4 31.7-25.9 50.1-16.7l99.6 49.8c18.4 9.2 25.9 31.6 16.7 50.1-6.6 13-19.8 20.6-33.5 20.6zM362.7 574.4c-5.6 0-11.3-1.3-16.7-3.9l-99.6-49.8c-18.4-9.2-25.9-31.6-16.7-50.1 9.2-18.4 31.7-25.9 50.1-16.7l99.6 49.8c18.4 9.2 25.9 31.6 16.7 50.1-6.5 13-19.7 20.6-33.4 20.6zM362.7 425c-5.6 0-11.3-1.3-16.7-3.9l-99.6-49.8c-18.4-9.2-25.9-31.6-16.7-50.1 9.2-18.4 31.7-25.9 50.1-16.7l99.6 49.8c18.4 9.2 25.9 31.6 16.7 50.1-6.5 13-19.7 20.6-33.4 20.6z" fill="#29CCB6" p-id="15690"></path><path d="M512.1 985.1c-10.5 0-20.8-3.3-29.5-9.7-12.8-9.4-20.3-24.3-20.3-40.1V213.4c0-21.8 14.1-41 34.9-47.5L895.5 41.4c15.1-4.7 31.6-2 44.3 7.4 12.8 9.4 20.3 24.3 20.3 40.1v721.9c0 21.8-14.1 41-34.9 47.5L526.9 982.8c-4.8 1.5-9.8 2.3-14.8 2.3zM561.9 250v617.5l298.7-93.3V156.7L561.9 250z" fill="#4585F5" p-id="15691"></path><path d="M512.1 985.1c-5 0-10-0.8-14.9-2.3L99 858.3c-20.8-6.4-35-25.7-35-47.5V89c0-15.8 7.5-30.7 20.3-40.1 12.8-9.4 29.2-12.1 44.3-7.4L526.9 166c20.8 6.5 34.9 25.7 34.9 47.5v721.9c0 15.8-7.5 30.7-20.3 40.1a49.7 49.7 0 0 1-29.4 9.6zM163.6 774.2l298.7 93.3V250l-298.7-93.3v617.5z" fill="#4585F5" p-id="15692"></path></svg>