<?xml version="1.0" standalone="no"?><!DOCTYPE svg PUBLIC "-//W3C//DTD SVG 1.1//EN" "http://www.w3.org/Graphics/SVG/1.1/DTD/svg11.dtd"><svg t="1641994073719" class="icon" viewBox="0 0 1107 1024" version="1.1" xmlns="http://www.w3.org/2000/svg" p-id="54191" xmlns:xlink="http://www.w3.org/1999/xlink" width="324.31640625" height="300"><defs><style type="text/css"></style></defs><path d="M183.8954 294.601453h-137.917676c-25.073123 0-45.962228 22.981114-45.962228 48.038741V1024h229.857627V342.733172c0-27.165133-20.9046-48.038741-45.977723-48.038741zM476.466828 0h-137.917675c-25.073123 0-45.962228 22.981114-45.962228 50.161743V1024h229.857627V50.161743C522.444552 22.99661 501.539952 0 476.466828 0zM769.038257 543.349153h-137.917676c-25.073123 0-45.977724 22.981114-45.977724 50.146247V1024h229.873124V593.4954c0-27.165133-20.9046-50.146247-45.977724-50.146247zM1061.609685 294.601453h-137.917675c-25.073123 0-45.962228 22.981114-45.962228 48.038741V1024h229.842131V342.733172c0-27.165133-20.889104-48.038741-45.962228-48.038741z" fill="#00a0e9" p-id="54192"></path></svg>