<?xml version="1.0" standalone="no"?><!DOCTYPE svg PUBLIC "-//W3C//DTD SVG 1.1//EN" "http://www.w3.org/Graphics/SVG/1.1/DTD/svg11.dtd"><svg t="1641994307299" class="icon" viewBox="0 0 1024 1024" version="1.1" xmlns="http://www.w3.org/2000/svg" p-id="56464" xmlns:xlink="http://www.w3.org/1999/xlink" width="300" height="300"><defs><style type="text/css"></style></defs><path d="M932.1792602539062 521.1799011230469v210.05996704101562h-47.93966674804687c-7.320190429687499-19.56033325195313-15.779937744140623-35.87997436523438-25.86044311523438-48.96057128906251-36.779754638671875-48.42004394531251-100.37988281249999-61.380340576171875-156.23959350585938-73.14010620117188-22.31982421875-4.559875488281249-43.500091552734375-9.000274658203125-60.23995971679688-15.11993408203125-7.19989013671875-2.5798645019531246-12.23931884765625-5.159729003906249-15.71978759765625-7.019439697265624 17.6396484375-19.319732666015625 32.819732666015625-42.96038818359375 43.91949462890624-69.66046142578125 13.920227050781248-32.69943237304688 21.180267333984375-68.27947998046875 21.180267333984375-102.96057128906251 0-52.97991943359376-3.3601684570312504-113.64010620117188-27.600677490234375-162.2999267578125-10.740509033203125-21.23959350585938-27.77947998046875-44.999725341796875-54.84045410156249-62.09967041015624 12.899322509765625-46.560333251953125 42.420684814453125-77.52035522460939 105.06005859375-77.52035522460939 98.46002197265625 0 113.57995605468749 79.67999267578125 113.57995605468749 175.7397766113281 0 50.33990478515625-22.440124511718754 101.93966674804686-55.61993408203124 131.27975463867188-3.3000183105468746 3.000091552734375-5.159729003906249 7.260040283203125-5.159729003906249 11.579315185546875-0.12030029296875 11.940216064453127 0.23977661132812497 27.600677490234375 4.799652099609375 33.480560302734375 27.840454101562496 37.13983154296875 103.50027465820312 38.28021240234375 160.67999267578128 56.64001464843749M163.57986450195312 683.7797546386719c35.81982421875-51.06005859375001 101.2796630859375-64.08050537109375 158.93975830078122-75.78012084960936 22.620574951171875-4.440399169921875 43.80001831054687-8.879974365234375 60.66018676757813-14.760681152343752 6.960113525390624-2.4603881835937504 11.880065917968748-4.680175781249999 15.300384521484373-6.660186767578126-17.6396484375-19.319732666015625-32.279205322265625-42.71978759765624-43.62039184570313-68.93948364257812-13.739776611328125-32.52062988281251-21.23959350585938-67.43984985351561-21.720794677734375-101.39996337890625-0.5397033691406251-44.940399169921875 2.2799377441406246-79.14028930664061 8.09967041015625-108.18045043945312 8.5198974609375-41.76068115234375 24.12020874023437-73.56033325195312 47.82019042968749-97.50009155273436 7.859893798828125-8.159820556640625 16.67971801757812-15.000457763671875 26.040069580078125-20.880340576171875-13.200073242187498-46.80010986328126-42.11993408203125-77.76013183593749-103.50027465820312-77.76013183593749-101.46011352539062 0-115.73959350585938 80.57977294921874-114.7796630859375 177.35971069335938 0.5397033691406251 49.31982421875 22.920501708984375 100.6798095703125 55.740234375 129.89959716796875 3.3601684570312504 2.9399414062500004 5.219879150390625 7.260040283203125 5.219879150390625 11.82073974609375 0 11.940216064453127-0.77947998046875 27.47955322265625-4.980102539062499 33.00018310546875-27.180450439453125 37.08050537109375-103.44012451171875 37.920135498046875-160.97991943359375 55.67926025390625v211.31982421875h48.05996704101562c6.720336914062501-18.71987915039063 14.699707031250002-34.19989013671875 23.69998168945313-47.2203369140625m695.880340576172 209.5227355957031c0.47955322265624994 10.199981689453125-7.680267333984375 18.71987915039063-17.75994873046875 18.71987915039063H183.0198974609375c-10.199981689453125 0-18.240325927734375-8.580047607421873-17.700622558593754-18.71987915039063 2.339263916015625-40.319549560546875 10.8599853515625-134.76022338867188 41.27947998046876-178.2594909667969 46.19943237304688-65.75976562500001 198.7196044921875-43.1400146484375 241.4402160644531-101.93966674804686 4.860626220703125-6.420410156249999 5.640106201171875-23.760131835937496 5.640106201171875-37.13983154296875 0-5.0394287109375-2.0994873046875-9.83990478515625-5.819732666015625-13.319549560546875-36.6602783203125-32.760406494140625-61.380340576171875-90.12057495117188-61.9200439453125-145.6202087402344-1.0802307128906248-108.60067749023438 14.760681152343752-198.77975463867188 127.3197326660156-198.77975463867188 109.13955688476564 0 125.75994873046875 89.22079467773439 125.75994873046875 197.22079467773438 0 56.51971435546874-24.83953857421875 114.23995971679689-61.499816894531264 147.17999267578128-3.5406188964843746 3.2398681640624996-5.819732666015625 8.220794677734375-5.879882812500001 12.899322509765625-0.2999267578125 13.319549560546875 0.5397033691406251 31.02017211914062 5.159729003906249 37.62020874023437 43.259490966796875 58.79965209960937 191.21978759765622 37.740509033203125 240.24050903320307 101.93966674804686 31.980102539062496 42.5401611328125 40.26022338867187 137.82046508789062 42.420684814453125 178.20016479492185z" p-id="56465" fill="#1296db"></path></svg>