<?xml version="1.0" standalone="no"?><!DOCTYPE svg PUBLIC "-//W3C//DTD SVG 1.1//EN" "http://www.w3.org/Graphics/SVG/1.1/DTD/svg11.dtd"><svg t="1641994535578" class="icon" viewBox="0 0 1024 1024" version="1.1" xmlns="http://www.w3.org/2000/svg" p-id="58005" xmlns:xlink="http://www.w3.org/1999/xlink" width="300" height="300"><defs><style type="text/css"></style></defs><path d="M164.655 68.977l0 0 0 0zM866.321 769.149q0 59.804-36.377 94.437t-96.684 34.632l-435.544 0q-60.293 0-96.684-34.632t-36.377-94.437q0-26.414 1.744-51.573t6.977-54.321 13.2-54.069 21.432-48.586 30.892-40.367 42.614-26.665 55.563-9.963q4.479 0 20.931 10.717t37.131 23.916 53.819 23.916 66.531 10.717 66.531-10.717 53.819-23.916 37.131-23.916 20.931-10.717q30.405 0 55.563 9.963t42.614 26.665 30.893 40.367 21.432 48.586 13.2 54.069 6.977 54.321 1.744 51.573zM706.846 324.131q0 79.242-56.065 135.292t-135.293 56.065-135.293-56.065-56.065-135.292 56.065-135.293 135.293-56.065 135.293 56.065 56.065 135.293z" p-id="58006"></path></svg>