<?xml version="1.0" standalone="no"?><!DOCTYPE svg PUBLIC "-//W3C//DTD SVG 1.1//EN" "http://www.w3.org/Graphics/SVG/1.1/DTD/svg11.dtd"><svg t="1647402312871" class="icon" viewBox="0 0 1024 1024" version="1.1" xmlns="http://www.w3.org/2000/svg" p-id="3198" xmlns:xlink="http://www.w3.org/1999/xlink" width="200" height="200"><defs><style type="text/css"></style></defs><path d="M1019.66 493.27c-97.26-199-291.78-322.6-507.66-322.6S101.6 294.27 4.34 493.27a42.63 42.63 0 0 0 0 37.46c97.26 199 291.78 322.6 507.66 322.6s410.4-123.6 507.66-322.6a42.564 42.564 0 0 0 0-37.46zM512 768c-176.18 0-335.79-97.56-421.36-256C176.21 353.56 335.82 256 512 256s335.79 97.56 421.36 256C847.79 670.44 688.18 768 512 768z" fill="#333333" p-id="3199"></path><path d="M512 298.67c-21.47 0-42.7 3.21-63.08 9.52-16.96 5.25-28.89 20.44-29.97 38.15-1.08 17.71 8.91 34.25 25.08 41.52 15.37 6.92 25.3 22.15 25.3 38.81 0 23.52-19.14 42.67-42.67 42.67-16.68 0-31.91-9.94-38.81-25.29-7.26-16.19-23.83-26.42-41.52-25.1-17.72 1.08-32.91 13.02-38.16 29.98-6.31 20.4-9.51 41.62-9.51 63.08 0 117.62 95.7 213.33 213.33 213.33S725.33 629.62 725.33 512 629.63 298.67 512 298.67zM512 640c-57.68 0-106.57-38.35-122.52-90.9 11.89 3.62 24.4 5.56 37.19 5.56 70.58 0 128-57.42 128-128 0-12.79-1.93-25.31-5.56-37.19C601.65 405.42 640 454.31 640 512c0 70.58-57.42 128-128 128z" fill="#333333" p-id="3200"></path></svg>