<?xml version="1.0" standalone="no"?><!DOCTYPE svg PUBLIC "-//W3C//DTD SVG 1.1//EN" "http://www.w3.org/Graphics/SVG/1.1/DTD/svg11.dtd"><svg t="1647911772273" class="icon" viewBox="0 0 1024 1024" version="1.1" xmlns="http://www.w3.org/2000/svg" p-id="1676" xmlns:xlink="http://www.w3.org/1999/xlink" width="300" height="300"><defs><style type="text/css">@font-face { font-family: feedback-iconfont; src: url("//at.alicdn.com/t/font_1031158_u69w8yhxdu.woff2?t=1630033759944") format("woff2"), url("//at.alicdn.com/t/font_1031158_u69w8yhxdu.woff?t=1630033759944") format("woff"), url("//at.alicdn.com/t/font_1031158_u69w8yhxdu.ttf?t=1630033759944") format("truetype"); }
</style></defs><path d="M512 512m-512 0a512 512 0 1 0 1024 0 512 512 0 1 0-1024 0Z" fill="#FDEBED" p-id="1677"></path><path d="M691.2 691.2H332.8c-28.16 0-51.2-23.04-51.2-51.2V384c0-14.08 5.12-26.88 15.36-37.12L512 497.92l215.04-151.04c10.24 10.24 15.36 23.04 15.36 37.12v256c0 28.16-23.04 51.2-51.2 51.2zM308.48 327.68h405.76L512 472.32 308.48 327.68z" fill="#EC3A4E" p-id="1678"></path></svg>