<?xml version="1.0" standalone="no"?><!DOCTYPE svg PUBLIC "-//W3C//DTD SVG 1.1//EN" "http://www.w3.org/Graphics/SVG/1.1/DTD/svg11.dtd"><svg t="1649303447742" class="icon" viewBox="0 0 1024 1024" version="1.1" xmlns="http://www.w3.org/2000/svg" p-id="1644" xmlns:xlink="http://www.w3.org/1999/xlink" width="200" height="200"><defs><style type="text/css">@font-face { font-family: feedback-iconfont; src: url("//at.alicdn.com/t/font_1031158_u69w8yhxdu.woff2?t=1630033759944") format("woff2"), url("//at.alicdn.com/t/font_1031158_u69w8yhxdu.woff?t=1630033759944") format("woff"), url("//at.alicdn.com/t/font_1031158_u69w8yhxdu.ttf?t=1630033759944") format("truetype"); }
</style></defs><path d="M512 512m-512 0a512 512 0 1 0 1024 0 512 512 0 1 0-1024 0Z" fill="#FDEBED" p-id="1645"></path><path d="M691.2 614.4H524.8v76.8h51.2c7.68 0 12.8 5.12 12.8 12.8s-5.12 12.8-12.8 12.8H448c-7.68 0-12.8-5.12-12.8-12.8s5.12-12.8 12.8-12.8h51.2v-76.8H332.8c-28.16 0-51.2-23.04-51.2-51.2V358.4c0-28.16 23.04-51.2 51.2-51.2h358.4c28.16 0 51.2 23.04 51.2 51.2v204.8c0 28.16-23.04 51.2-51.2 51.2z" fill="#EC3A4E" p-id="1646"></path></svg>